<svg xmlns="http://www.w3.org/2000/svg" width="166" height="16.807" viewBox="0 0 166 16.807"><defs><style>.a{fill:#fff;}.b{fill:#00b1f0;}</style></defs><g transform="translate(-91.721 -472.954)"><path class="a" d="M91.721,489.952V473.71H93.87v16.242Z" transform="translate(0 -0.468)"/><path class="a" d="M107.13,489.952V473.71h3.235l3.845,11.5q.532,1.606.776,2.4.277-.886.864-2.6l3.889-11.3h2.892v16.242h-2.072V476.358l-4.72,13.594H113.9l-4.7-13.827v13.827Z" transform="translate(-9.537 -0.468)"/><path class="a" d="M155.188,481.574a8.826,8.826,0,0,1,2.171-6.332,7.383,7.383,0,0,1,5.606-2.288,7.783,7.783,0,0,1,4.055,1.075,7.021,7.021,0,0,1,2.753,3,9.729,9.729,0,0,1,.947,4.36,9.572,9.572,0,0,1-1,4.421,6.808,6.808,0,0,1-2.825,2.953,8.072,8.072,0,0,1-3.944,1,7.677,7.677,0,0,1-4.1-1.108,7.124,7.124,0,0,1-2.737-3.024A9.169,9.169,0,0,1,155.188,481.574Zm2.216.033a6.5,6.5,0,0,0,1.579,4.626,5.508,5.508,0,0,0,7.955-.016,6.9,6.9,0,0,0,1.567-4.842,8.323,8.323,0,0,0-.67-3.462,5.153,5.153,0,0,0-1.961-2.294,5.316,5.316,0,0,0-2.9-.814,5.5,5.5,0,0,0-3.927,1.567Q157.4,477.94,157.4,481.607Z" transform="translate(-39.281)"/><path class="a" d="M205.177,489.952l-6.293-16.242h2.327l4.221,11.8q.51,1.418.853,2.659.376-1.33.875-2.659l4.387-11.8h2.194l-6.36,16.242Z" transform="translate(-66.325 -0.468)"/><path class="b" d="M253.51,483.808l2.149.543a7.236,7.236,0,0,1-2.432,4.038,6.7,6.7,0,0,1-4.293,1.391,7.713,7.713,0,0,1-4.271-1.069,6.671,6.671,0,0,1-2.5-3.1,11.042,11.042,0,0,1-.859-4.354,9.572,9.572,0,0,1,.969-4.426,6.64,6.64,0,0,1,2.759-2.869,8.059,8.059,0,0,1,3.939-.981,6.661,6.661,0,0,1,4.1,1.241,6.447,6.447,0,0,1,2.315,3.49l-2.116.5a5.02,5.02,0,0,0-1.64-2.581,4.371,4.371,0,0,0-2.7-.809,5.254,5.254,0,0,0-3.13.9,4.743,4.743,0,0,0-1.767,2.41,9.712,9.712,0,0,0-.509,3.119,9.915,9.915,0,0,0,.6,3.617,4.5,4.5,0,0,0,1.878,2.31,5.268,5.268,0,0,0,2.759.764,4.623,4.623,0,0,0,3.058-1.041A5.329,5.329,0,0,0,253.51,483.808Z" transform="translate(-92.578 -0.018)"/><path class="b" d="M284.213,481.574a8.824,8.824,0,0,1,2.172-6.332,7.383,7.383,0,0,1,5.606-2.288,7.78,7.78,0,0,1,4.055,1.075,7.018,7.018,0,0,1,2.753,3,9.729,9.729,0,0,1,.948,4.36,9.562,9.562,0,0,1-1,4.421,6.8,6.8,0,0,1-2.825,2.953,8.072,8.072,0,0,1-3.944,1,7.678,7.678,0,0,1-4.1-1.108,7.127,7.127,0,0,1-2.737-3.024A9.169,9.169,0,0,1,284.213,481.574Zm2.216.033a6.506,6.506,0,0,0,1.579,4.626,5.508,5.508,0,0,0,7.955-.016,6.9,6.9,0,0,0,1.568-4.842,8.322,8.322,0,0,0-.67-3.462,5.151,5.151,0,0,0-1.961-2.294,5.315,5.315,0,0,0-2.9-.814,5.5,5.5,0,0,0-3.927,1.567Q286.429,477.94,286.429,481.607Z" transform="translate(-119.136)"/><path class="b" d="M332.184,489.952V473.71h2.2l8.531,12.752V473.71h2.061v16.242h-2.2l-8.531-12.763v12.763Z" transform="translate(-148.826 -0.468)"/><path class="b" d="M377.394,489.952V475.627h-5.351V473.71h12.874v1.917h-5.373v14.325Z" transform="translate(-173.496 -0.468)"/><path class="b" d="M411.7,489.952V473.71h7.2a9.593,9.593,0,0,1,3.3.438,3.615,3.615,0,0,1,1.806,1.546,4.609,4.609,0,0,1,.676,2.448,4.083,4.083,0,0,1-1.119,2.914,5.658,5.658,0,0,1-3.456,1.507,5.567,5.567,0,0,1,1.3.809,11.159,11.159,0,0,1,1.784,2.16l2.825,4.421h-2.7l-2.15-3.379q-.941-1.463-1.551-2.238a4.872,4.872,0,0,0-1.091-1.086,3.223,3.223,0,0,0-.981-.432,6.476,6.476,0,0,0-1.2-.078h-2.493v7.213Zm2.15-9.074h4.62a6.927,6.927,0,0,0,2.3-.3,2.451,2.451,0,0,0,1.263-.975,2.636,2.636,0,0,0,.432-1.457,2.419,2.419,0,0,0-.837-1.894,3.913,3.913,0,0,0-2.642-.742h-5.14Z" transform="translate(-198.039 -0.468)"/><path class="b" d="M452.894,481.574a8.826,8.826,0,0,1,2.171-6.332,7.384,7.384,0,0,1,5.606-2.288,7.781,7.781,0,0,1,4.055,1.075,7.018,7.018,0,0,1,2.753,3,9.735,9.735,0,0,1,.947,4.36,9.568,9.568,0,0,1-1,4.421,6.805,6.805,0,0,1-2.825,2.953,8.072,8.072,0,0,1-3.944,1,7.677,7.677,0,0,1-4.1-1.108,7.125,7.125,0,0,1-2.737-3.024A9.169,9.169,0,0,1,452.894,481.574Zm2.216.033a6.506,6.506,0,0,0,1.579,4.626,5.508,5.508,0,0,0,7.955-.016,6.9,6.9,0,0,0,1.568-4.842,8.324,8.324,0,0,0-.67-3.462,5.156,5.156,0,0,0-1.961-2.294,5.314,5.314,0,0,0-2.9-.814,5.5,5.5,0,0,0-3.928,1.567Q455.11,477.94,455.11,481.607Z" transform="translate(-223.536)"/><path class="b" d="M500.69,489.952V473.71h2.149v14.326h8v1.916Z" transform="translate(-253.118 -0.468)"/></g></svg>